<?xml version="1.0" encoding="utf-8"?>
<!-- Generator: Adobe Illustrator 22.1.0, SVG Export Plug-In . SVG Version: 6.00 Build 0)  -->
<svg version="1.1" id="Layer_1" xmlns="http://www.w3.org/2000/svg" xmlns:xlink="http://www.w3.org/1999/xlink" x="0px" y="0px"
	 viewBox="0 0 2383.9 3370.4" style="enable-background:new 0 0 2383.9 3370.4;" xml:space="preserve">
<style type="text/css">
	.st0{fill:none;stroke:#000000;stroke-width:110;stroke-miterlimit:10;}
</style>
<path class="st0" d="M1268.7,2214.1c-320.2,48.3-618.9-172.2-667.2-492.4c-48.3-320.2,172.2-618.9,492.4-667.2"/>
<path class="st0" d="M2024.9,1063.4c309.7,466.2,182.8,1095.3-283.4,1405S646.2,2651.2,336.5,2185"/>
<path class="st0" d="M769,1217.4L468.6,913.6c147.4-146,340.8-248.2,561.6-281.4"/>
<path class="st0" d="M2194.3,1629.5l-427.2-2.2l0,0c0.7-112.6-31-226.6-98-327.5"/>
<path class="st0" d="M2025.9,1063.4c309.7,466.2,182.8,1095.3-283.4,1405S647.2,2651.2,337.5,2185"/>
<path class="st0" d="M2195.3,1629.5l-427.2-2.2l0,0c0.7-112.6-31-226.6-98-327.5"/>
<line class="st0" x1="1820.5" y1="255.8" x2="549.3" y2="2996.8"/>
</svg>
